<mxfile host="app.diagrams.net" agent="Mozilla/5.0 (X11; Linux x86_64) AppleWebKit/537.36 (KHTML, like Gecko) Chrome/125.0.0.0 Safari/537.36" version="26.1.0" pages="3">
  <diagram name="Page-1" id="69hs5MAJSxDx4LFC_z-3">
    <mxGraphModel>
      <root>
        <mxCell id="0" />
        <mxCell id="1" parent="0" />
      </root>
    </mxGraphModel>
  </diagram>
  <diagram id="g0jqw1S5LcnCQFRPHPSW" name="Page-2">
    <mxGraphModel dx="1364" dy="759" grid="1" gridSize="10" guides="1" tooltips="1" connect="1" arrows="1" fold="1" page="1" pageScale="1" pageWidth="827" pageHeight="1169" math="0" shadow="0">
      <root>
        <mxCell id="0" />
        <mxCell id="1" parent="0" />
        <mxCell id="iXpjLQhHcasowPOTYGBS-2" value="&lt;font style=&quot;font-size: 24px;&quot;&gt;Human Mesh Recovery from Multiple Shots&lt;/font&gt;" style="rounded=0;whiteSpace=wrap;html=1;" vertex="1" parent="1">
          <mxGeometry x="180" y="20" width="500" height="40" as="geometry" />
        </mxCell>
        <mxCell id="iXpjLQhHcasowPOTYGBS-3" value="&lt;div style=&quot;text-align: left;&quot;&gt;&lt;span style=&quot;background-color: transparent; color: light-dark(rgb(0, 0, 0), rgb(255, 255, 255));&quot;&gt;&lt;font style=&quot;font-size: 14px;&quot;&gt;Multi-Shot Optimization&lt;/font&gt;&lt;/span&gt;&lt;/div&gt;&lt;div style=&quot;text-align: left;&quot;&gt;&lt;strong data-end=&quot;367&quot; data-start=&quot;355&quot;&gt;Problem:&lt;/strong&gt; Shot changes in movies create abrupt discontinuities in video frames&lt;br&gt;&lt;ul data-end=&quot;572&quot; data-start=&quot;353&quot;&gt;&lt;li data-end=&quot;572&quot; data-start=&quot;438&quot;&gt;&lt;strong data-end=&quot;453&quot; data-start=&quot;440&quot;&gt;Solution:&lt;/strong&gt; Leverage these changes as &lt;strong data-end=&quot;502&quot; data-start=&quot;480&quot;&gt;multi-view signals&lt;/strong&gt; to reconstruct &lt;strong data-end=&quot;532&quot; data-start=&quot;518&quot;&gt;consistent&lt;/strong&gt; 3D human motion sequences across shots.&lt;/li&gt;&lt;br/&gt;&lt;/ul&gt;&lt;br/&gt;&lt;h4 data-end=&quot;589&quot; data-start=&quot;574&quot;&gt;&lt;/h4&gt;&lt;/div&gt;" style="rounded=1;whiteSpace=wrap;html=1;" vertex="1" parent="1">
          <mxGeometry x="30" y="150" width="300" height="60" as="geometry" />
        </mxCell>
        <mxCell id="iXpjLQhHcasowPOTYGBS-4" value="2D keypoints&amp;nbsp;using OpenPose or AlphaPose" style="rounded=0;whiteSpace=wrap;html=1;" vertex="1" parent="1">
          <mxGeometry x="60" y="240" width="120" height="60" as="geometry" />
        </mxCell>
        <mxCell id="iXpjLQhHcasowPOTYGBS-6" value="Detect &lt;strong data-end=&quot;720&quot; data-start=&quot;701&quot;&gt;shot boundaries&lt;/strong&gt;" style="rounded=0;whiteSpace=wrap;html=1;" vertex="1" parent="1">
          <mxGeometry x="230" y="240" width="120" height="60" as="geometry" />
        </mxCell>
        <mxCell id="iXpjLQhHcasowPOTYGBS-7" value="Preprocessing" style="rounded=0;whiteSpace=wrap;html=1;" vertex="1" parent="1">
          <mxGeometry x="160" y="555" width="120" height="60" as="geometry" />
        </mxCell>
        <mxCell id="iXpjLQhHcasowPOTYGBS-8" value="&lt;li data-end=&quot;1049&quot; data-start=&quot;984&quot;&gt;Decomposes &lt;strong data-end=&quot;1019&quot; data-start=&quot;997&quot;&gt;global orientation&lt;/strong&gt; and &lt;strong data-end=&quot;1048&quot; data-start=&quot;1024&quot;&gt;body pose parameters&lt;/strong&gt;.&lt;/li&gt;&lt;br/&gt;&lt;li data-end=&quot;1139&quot; data-start=&quot;1055&quot;&gt;&lt;/li&gt;" style="rounded=0;whiteSpace=wrap;html=1;" vertex="1" parent="1">
          <mxGeometry x="510" y="330" width="120" height="60" as="geometry" />
        </mxCell>
        <mxCell id="iXpjLQhHcasowPOTYGBS-9" value="&lt;strong data-end=&quot;802&quot; data-start=&quot;766&quot;&gt;person re-identification network&lt;br&gt;to track the same identity across shots&lt;br&gt;&lt;/strong&gt;" style="rounded=0;whiteSpace=wrap;html=1;" vertex="1" parent="1">
          <mxGeometry x="380" y="240" width="120" height="60" as="geometry" />
        </mxCell>
        <mxCell id="iXpjLQhHcasowPOTYGBS-10" value="SMPL" style="rounded=0;whiteSpace=wrap;html=1;" vertex="1" parent="1">
          <mxGeometry x="520" y="470" width="120" height="60" as="geometry" />
        </mxCell>
        <mxCell id="iXpjLQhHcasowPOTYGBS-11" value="&lt;strong data-end=&quot;1311&quot; data-start=&quot;1280&quot;&gt;long, temporally consistent&lt;/strong&gt; 3D human mesh sequences." style="rounded=0;whiteSpace=wrap;html=1;" vertex="1" parent="1">
          <mxGeometry x="140" y="440" width="120" height="60" as="geometry" />
        </mxCell>
        <mxCell id="iXpjLQhHcasowPOTYGBS-12" value="Optimization" style="rounded=0;whiteSpace=wrap;html=1;" vertex="1" parent="1">
          <mxGeometry x="630" y="630" width="120" height="60" as="geometry" />
        </mxCell>
        <mxCell id="iXpjLQhHcasowPOTYGBS-13" value="reprojection loss and&amp;nbsp;&lt;br&gt;smoothness&amp;nbsp;regularization" style="rounded=0;whiteSpace=wrap;html=1;" vertex="1" parent="1">
          <mxGeometry x="600" y="140" width="120" height="60" as="geometry" />
        </mxCell>
        <mxCell id="iXpjLQhHcasowPOTYGBS-14" value="&lt;li data-end=&quot;1139&quot; data-start=&quot;944&quot;&gt;&lt;ul data-end=&quot;1139&quot; data-start=&quot;984&quot;&gt;&lt;li data-end=&quot;1139&quot; data-start=&quot;1055&quot;&gt;Applies &lt;strong data-end=&quot;1091&quot; data-start=&quot;1065&quot;&gt;smoothness constraints&lt;/strong&gt; in &lt;strong data-end=&quot;1114&quot; data-start=&quot;1095&quot;&gt;canonical space&lt;/strong&gt; instead of camera space.&lt;/li&gt;&lt;br/&gt;&lt;/ul&gt;&lt;br/&gt;&lt;/li&gt;&lt;br/&gt;&lt;li data-end=&quot;1248&quot; data-start=&quot;1143&quot;&gt;&lt;/li&gt;" style="rounded=0;whiteSpace=wrap;html=1;" vertex="1" parent="1">
          <mxGeometry x="690" y="260" width="120" height="60" as="geometry" />
        </mxCell>
        <mxCell id="iXpjLQhHcasowPOTYGBS-15" value=" Human Mesh Recovery Models" style="rounded=0;whiteSpace=wrap;html=1;" vertex="1" parent="1">
          <mxGeometry x="350" y="340" width="120" height="60" as="geometry" />
        </mxCell>
        <mxCell id="iXpjLQhHcasowPOTYGBS-16" value="Single-Frame Model" style="rounded=0;whiteSpace=wrap;html=1;" vertex="1" parent="1">
          <mxGeometry x="390" y="495" width="120" height="60" as="geometry" />
        </mxCell>
        <mxCell id="iXpjLQhHcasowPOTYGBS-17" value="&lt;strong data-end=&quot;2031&quot; data-start=&quot;2019&quot;&gt;Problem:&lt;/strong&gt; Traditional recurrent/convolutional video models struggle with missing frames in movies&lt;br&gt;&lt;ul data-end=&quot;2217&quot; data-start=&quot;2017&quot;&gt;&lt;li data-end=&quot;2217&quot; data-start=&quot;2121&quot;&gt;&lt;strong data-end=&quot;2136&quot; data-start=&quot;2123&quot;&gt;Solution:&lt;/strong&gt; Uses a &lt;strong data-end=&quot;2165&quot; data-start=&quot;2144&quot;&gt;transformer-based&lt;/strong&gt; architecture to handle &lt;strong data-end=&quot;2216&quot; data-start=&quot;2189&quot;&gt;discontinuous sequences&lt;/strong&gt;.&lt;/li&gt;&lt;br/&gt;&lt;/ul&gt;" style="rounded=0;whiteSpace=wrap;html=1;" vertex="1" parent="1">
          <mxGeometry x="640" y="770" width="130" height="120" as="geometry" />
        </mxCell>
        <mxCell id="iXpjLQhHcasowPOTYGBS-18" value="Temporal Model (t-HMMR)" style="rounded=0;whiteSpace=wrap;html=1;" vertex="1" parent="1">
          <mxGeometry x="670" y="380" width="120" height="60" as="geometry" />
        </mxCell>
        <mxCell id="iXpjLQhHcasowPOTYGBS-19" value="" style="rounded=0;whiteSpace=wrap;html=1;" vertex="1" parent="1">
          <mxGeometry x="414" y="790" width="120" height="60" as="geometry" />
        </mxCell>
        <mxCell id="iXpjLQhHcasowPOTYGBS-20" value="" style="rounded=0;whiteSpace=wrap;html=1;" vertex="1" parent="1">
          <mxGeometry x="330" y="585" width="120" height="60" as="geometry" />
        </mxCell>
        <mxCell id="iXpjLQhHcasowPOTYGBS-21" value="" style="rounded=0;whiteSpace=wrap;html=1;" vertex="1" parent="1">
          <mxGeometry x="680" y="525" width="120" height="60" as="geometry" />
        </mxCell>
        <mxCell id="iXpjLQhHcasowPOTYGBS-22" value="" style="rounded=0;whiteSpace=wrap;html=1;" vertex="1" parent="1">
          <mxGeometry x="120" y="670" width="120" height="60" as="geometry" />
        </mxCell>
      </root>
    </mxGraphModel>
  </diagram>
  <diagram id="owXUIui2DZB4aiBjU2b9" name="Page-3">
    <mxGraphModel dx="1364" dy="759" grid="1" gridSize="10" guides="1" tooltips="1" connect="1" arrows="1" fold="1" page="1" pageScale="1" pageWidth="827" pageHeight="1169" math="0" shadow="0">
      <root>
        <mxCell id="0" />
        <mxCell id="1" parent="0" />
      </root>
    </mxGraphModel>
  </diagram>
</mxfile>
